<mxfile host="app.diagrams.net" agent="Mozilla/5.0 (Windows NT 10.0; Win64; x64) AppleWebKit/537.36 (KHTML, like Gecko) Chrome/138.0.0.0 Safari/537.36" version="28.0.3">
  <diagram name="Page-1" id="VgGEWm7407OL9-sPw5FP">
    <mxGraphModel dx="3557" dy="1191" grid="1" gridSize="10" guides="1" tooltips="1" connect="1" arrows="1" fold="1" page="1" pageScale="1" pageWidth="827" pageHeight="1169" math="0" shadow="0">
      <root>
        <mxCell id="0" />
        <mxCell id="1" parent="0" />
        <mxCell id="seu4ykK82UJ5W9q59eQ0-123" value="Utilisateur" style="rounded=1;arcSize=20;strokeWidth=2" vertex="1" parent="1">
          <mxGeometry x="448" y="20" width="105" height="54" as="geometry" />
        </mxCell>
        <mxCell id="seu4ykK82UJ5W9q59eQ0-124" value="Enregistrer un utilisateur" style="rounded=1;arcSize=20;strokeWidth=2" vertex="1" parent="1">
          <mxGeometry x="59" y="147" width="210" height="54" as="geometry" />
        </mxCell>
        <mxCell id="seu4ykK82UJ5W9q59eQ0-125" value="Authentifier un utilisateur" style="rounded=1;arcSize=20;strokeWidth=2" vertex="1" parent="1">
          <mxGeometry x="319" y="147" width="218" height="54" as="geometry" />
        </mxCell>
        <mxCell id="seu4ykK82UJ5W9q59eQ0-126" value="Consulter son profil" style="rounded=1;arcSize=20;strokeWidth=2" vertex="1" parent="1">
          <mxGeometry x="587" y="147" width="170" height="54" as="geometry" />
        </mxCell>
        <mxCell id="seu4ykK82UJ5W9q59eQ0-127" value="ADMIN" style="rounded=1;arcSize=20;strokeWidth=2" vertex="1" parent="1">
          <mxGeometry x="20" y="424" width="75" height="54" as="geometry" />
        </mxCell>
        <mxCell id="seu4ykK82UJ5W9q59eQ0-128" value="FORMATEUR" style="rounded=1;arcSize=20;strokeWidth=2" vertex="1" parent="1">
          <mxGeometry x="145" y="424" width="115" height="54" as="geometry" />
        </mxCell>
        <mxCell id="seu4ykK82UJ5W9q59eQ0-129" value="APPRENANT" style="rounded=1;arcSize=20;strokeWidth=2" vertex="1" parent="1">
          <mxGeometry x="310" y="424" width="114" height="54" as="geometry" />
        </mxCell>
        <mxCell id="seu4ykK82UJ5W9q59eQ0-130" value="Recevoir un JWT" style="rounded=1;arcSize=20;strokeWidth=2" vertex="1" parent="1">
          <mxGeometry x="56" y="285" width="149" height="54" as="geometry" />
        </mxCell>
        <mxCell id="seu4ykK82UJ5W9q59eQ0-131" value="Recevoir une erreur d&#39;authentification" style="rounded=1;arcSize=20;strokeWidth=2" vertex="1" parent="1">
          <mxGeometry x="347" y="273" width="230" height="78" as="geometry" />
        </mxCell>
        <mxCell id="seu4ykK82UJ5W9q59eQ0-132" value="remplit formulaire" style="curved=1;startArrow=none;endArrow=block;exitX=0;exitY=0.68;entryX=0.5;entryY=-0.01;rounded=0;" edge="1" parent="1" source="seu4ykK82UJ5W9q59eQ0-123" target="seu4ykK82UJ5W9q59eQ0-124">
          <mxGeometry relative="1" as="geometry">
            <Array as="points">
              <mxPoint x="164" y="110" />
            </Array>
          </mxGeometry>
        </mxCell>
        <mxCell id="seu4ykK82UJ5W9q59eQ0-133" value="succès" style="curved=1;startArrow=none;endArrow=block;exitX=0.36;exitY=0.99;entryX=0.41;entryY=0.01;rounded=0;" edge="1" parent="1" source="seu4ykK82UJ5W9q59eQ0-124" target="seu4ykK82UJ5W9q59eQ0-130">
          <mxGeometry relative="1" as="geometry">
            <Array as="points">
              <mxPoint x="95" y="237" />
            </Array>
          </mxGeometry>
        </mxCell>
        <mxCell id="seu4ykK82UJ5W9q59eQ0-134" value="échec" style="curved=1;startArrow=none;endArrow=block;exitX=0.84;exitY=0.99;entryX=0.2;entryY=0;rounded=0;" edge="1" parent="1" source="seu4ykK82UJ5W9q59eQ0-124" target="seu4ykK82UJ5W9q59eQ0-131">
          <mxGeometry relative="1" as="geometry">
            <Array as="points">
              <mxPoint x="330" y="237" />
            </Array>
          </mxGeometry>
        </mxCell>
        <mxCell id="seu4ykK82UJ5W9q59eQ0-135" value="s&#39;identifie" style="curved=1;startArrow=none;endArrow=block;exitX=0.21;exitY=1;entryX=0.5;entryY=-0.01;rounded=0;" edge="1" parent="1" source="seu4ykK82UJ5W9q59eQ0-123" target="seu4ykK82UJ5W9q59eQ0-125">
          <mxGeometry relative="1" as="geometry">
            <Array as="points">
              <mxPoint x="428" y="110" />
            </Array>
          </mxGeometry>
        </mxCell>
        <mxCell id="seu4ykK82UJ5W9q59eQ0-136" value="succès" style="curved=1;startArrow=none;endArrow=block;exitX=0.18;exitY=0.99;entryX=0.82;entryY=0.01;rounded=0;" edge="1" parent="1" source="seu4ykK82UJ5W9q59eQ0-125" target="seu4ykK82UJ5W9q59eQ0-130">
          <mxGeometry relative="1" as="geometry">
            <Array as="points">
              <mxPoint x="262" y="237" />
            </Array>
          </mxGeometry>
        </mxCell>
        <mxCell id="seu4ykK82UJ5W9q59eQ0-137" value="échec" style="curved=1;startArrow=none;endArrow=block;exitX=0.63;exitY=0.99;entryX=0.58;entryY=0;rounded=0;" edge="1" parent="1" source="seu4ykK82UJ5W9q59eQ0-125" target="seu4ykK82UJ5W9q59eQ0-131">
          <mxGeometry relative="1" as="geometry">
            <Array as="points">
              <mxPoint x="495" y="237" />
            </Array>
          </mxGeometry>
        </mxCell>
        <mxCell id="seu4ykK82UJ5W9q59eQ0-138" value="consulte" style="curved=1;startArrow=none;endArrow=block;exitX=1.01;exitY=0.86;entryX=0.5;entryY=-0.01;rounded=0;" edge="1" parent="1" source="seu4ykK82UJ5W9q59eQ0-123" target="seu4ykK82UJ5W9q59eQ0-126">
          <mxGeometry relative="1" as="geometry">
            <Array as="points">
              <mxPoint x="672" y="110" />
            </Array>
          </mxGeometry>
        </mxCell>
        <mxCell id="seu4ykK82UJ5W9q59eQ0-139" value="contient rôle" style="curved=1;startArrow=none;endArrow=block;exitX=0.32;exitY=1.01;entryX=0.5;entryY=0;rounded=0;" edge="1" parent="1" source="seu4ykK82UJ5W9q59eQ0-130" target="seu4ykK82UJ5W9q59eQ0-127">
          <mxGeometry relative="1" as="geometry">
            <Array as="points">
              <mxPoint x="58" y="388" />
            </Array>
          </mxGeometry>
        </mxCell>
        <mxCell id="seu4ykK82UJ5W9q59eQ0-140" value="contient rôle" style="curved=1;startArrow=none;endArrow=block;exitX=0.67;exitY=1.01;entryX=0.5;entryY=0;rounded=0;" edge="1" parent="1" source="seu4ykK82UJ5W9q59eQ0-130" target="seu4ykK82UJ5W9q59eQ0-128">
          <mxGeometry relative="1" as="geometry">
            <Array as="points">
              <mxPoint x="203" y="388" />
            </Array>
          </mxGeometry>
        </mxCell>
        <mxCell id="seu4ykK82UJ5W9q59eQ0-141" value="contient rôle" style="curved=1;startArrow=none;endArrow=block;exitX=1;exitY=0.94;entryX=0.51;entryY=0;rounded=0;" edge="1" parent="1" source="seu4ykK82UJ5W9q59eQ0-130" target="seu4ykK82UJ5W9q59eQ0-129">
          <mxGeometry relative="1" as="geometry">
            <Array as="points">
              <mxPoint x="368" y="388" />
            </Array>
          </mxGeometry>
        </mxCell>
        <mxCell id="seu4ykK82UJ5W9q59eQ0-142" value="Utilisateur" style="shape=umlLifeline;perimeter=lifelinePerimeter;whiteSpace=wrap;container=1;dropTarget=0;collapsible=0;recursiveResize=0;outlineConnect=0;portConstraint=eastwest;newEdgeStyle={&quot;edgeStyle&quot;:&quot;elbowEdgeStyle&quot;,&quot;elbow&quot;:&quot;vertical&quot;,&quot;curved&quot;:0,&quot;rounded&quot;:0};size=65;" vertex="1" parent="1">
          <mxGeometry x="20" y="500" width="150" height="842" as="geometry" />
        </mxCell>
        <mxCell id="seu4ykK82UJ5W9q59eQ0-143" value="API_Gateway" style="shape=umlLifeline;perimeter=lifelinePerimeter;whiteSpace=wrap;container=1;dropTarget=0;collapsible=0;recursiveResize=0;outlineConnect=0;portConstraint=eastwest;newEdgeStyle={&quot;edgeStyle&quot;:&quot;elbowEdgeStyle&quot;,&quot;elbow&quot;:&quot;vertical&quot;,&quot;curved&quot;:0,&quot;rounded&quot;:0};size=65;" vertex="1" parent="1">
          <mxGeometry x="301" y="500" width="150" height="842" as="geometry" />
        </mxCell>
        <mxCell id="seu4ykK82UJ5W9q59eQ0-144" value="AuthController" style="shape=umlLifeline;perimeter=lifelinePerimeter;whiteSpace=wrap;container=1;dropTarget=0;collapsible=0;recursiveResize=0;outlineConnect=0;portConstraint=eastwest;newEdgeStyle={&quot;edgeStyle&quot;:&quot;elbowEdgeStyle&quot;,&quot;elbow&quot;:&quot;vertical&quot;,&quot;curved&quot;:0,&quot;rounded&quot;:0};size=65;" vertex="1" parent="1">
          <mxGeometry x="582" y="500" width="150" height="842" as="geometry" />
        </mxCell>
        <mxCell id="seu4ykK82UJ5W9q59eQ0-145" value="MongoDB" style="shape=umlLifeline;perimeter=lifelinePerimeter;whiteSpace=wrap;container=1;dropTarget=0;collapsible=0;recursiveResize=0;outlineConnect=0;portConstraint=eastwest;newEdgeStyle={&quot;edgeStyle&quot;:&quot;elbowEdgeStyle&quot;,&quot;elbow&quot;:&quot;vertical&quot;,&quot;curved&quot;:0,&quot;rounded&quot;:0};size=65;" vertex="1" parent="1">
          <mxGeometry x="813" y="500" width="150" height="842" as="geometry" />
        </mxCell>
        <mxCell id="seu4ykK82UJ5W9q59eQ0-146" value="alt" style="shape=umlFrame;dashed=1;pointerEvents=0;dropTarget=0;strokeColor=#B3B3B3;height=20;width=30" vertex="1" parent="1">
          <mxGeometry x="84" y="865" width="679" height="382" as="geometry" />
        </mxCell>
        <mxCell id="seu4ykK82UJ5W9q59eQ0-147" value="[password correct]" style="text;strokeColor=none;fillColor=none;align=center;verticalAlign=middle;whiteSpace=wrap;" vertex="1" parent="seu4ykK82UJ5W9q59eQ0-146">
          <mxGeometry x="30" width="649" height="20" as="geometry" />
        </mxCell>
        <mxCell id="seu4ykK82UJ5W9q59eQ0-148" value="[password incorrect]" style="shape=line;dashed=1;whiteSpace=wrap;verticalAlign=top;labelPosition=center;verticalLabelPosition=middle;align=center;strokeColor=#B3B3B3;" vertex="1" parent="seu4ykK82UJ5W9q59eQ0-146">
          <mxGeometry y="237" width="679" height="4" as="geometry" />
        </mxCell>
        <mxCell id="seu4ykK82UJ5W9q59eQ0-149" value="POST /login (email, password)" style="verticalAlign=bottom;edgeStyle=elbowEdgeStyle;elbow=vertical;curved=0;rounded=0;endArrow=block;" edge="1" parent="1" source="seu4ykK82UJ5W9q59eQ0-142" target="seu4ykK82UJ5W9q59eQ0-143">
          <mxGeometry relative="1" as="geometry">
            <Array as="points">
              <mxPoint x="244" y="607" />
            </Array>
          </mxGeometry>
        </mxCell>
        <mxCell id="seu4ykK82UJ5W9q59eQ0-150" value="POST /login (email, password)" style="verticalAlign=bottom;edgeStyle=elbowEdgeStyle;elbow=vertical;curved=0;rounded=0;endArrow=block;" edge="1" parent="1" source="seu4ykK82UJ5W9q59eQ0-143" target="seu4ykK82UJ5W9q59eQ0-144">
          <mxGeometry relative="1" as="geometry">
            <Array as="points">
              <mxPoint x="525" y="659" />
            </Array>
          </mxGeometry>
        </mxCell>
        <mxCell id="seu4ykK82UJ5W9q59eQ0-151" value="findUserByEmail(email)" style="verticalAlign=bottom;edgeStyle=elbowEdgeStyle;elbow=vertical;curved=0;rounded=0;endArrow=block;" edge="1" parent="1" source="seu4ykK82UJ5W9q59eQ0-144" target="seu4ykK82UJ5W9q59eQ0-145">
          <mxGeometry relative="1" as="geometry">
            <Array as="points">
              <mxPoint x="781" y="711" />
            </Array>
          </mxGeometry>
        </mxCell>
        <mxCell id="seu4ykK82UJ5W9q59eQ0-152" value="user data (hash, role)" style="verticalAlign=bottom;edgeStyle=elbowEdgeStyle;elbow=vertical;curved=0;rounded=0;dashed=1;dashPattern=2 3;endArrow=block;" edge="1" parent="1" source="seu4ykK82UJ5W9q59eQ0-145" target="seu4ykK82UJ5W9q59eQ0-144">
          <mxGeometry relative="1" as="geometry">
            <Array as="points">
              <mxPoint x="784" y="763" />
            </Array>
          </mxGeometry>
        </mxCell>
        <mxCell id="seu4ykK82UJ5W9q59eQ0-153" value="verify password" style="curved=1;endArrow=block;rounded=0;" edge="1" parent="1" source="seu4ykK82UJ5W9q59eQ0-144" target="seu4ykK82UJ5W9q59eQ0-144">
          <mxGeometry relative="1" as="geometry">
            <Array as="points">
              <mxPoint x="708" y="815" />
              <mxPoint x="708" y="845" />
            </Array>
          </mxGeometry>
        </mxCell>
        <mxCell id="seu4ykK82UJ5W9q59eQ0-154" value="generate JWT (userId, role)" style="curved=1;endArrow=block;rounded=0;" edge="1" parent="1" source="seu4ykK82UJ5W9q59eQ0-144" target="seu4ykK82UJ5W9q59eQ0-144">
          <mxGeometry relative="1" as="geometry">
            <Array as="points">
              <mxPoint x="708" y="943" />
              <mxPoint x="708" y="973" />
            </Array>
          </mxGeometry>
        </mxCell>
        <mxCell id="seu4ykK82UJ5W9q59eQ0-155" value="200 OK + JWT" style="verticalAlign=bottom;edgeStyle=elbowEdgeStyle;elbow=vertical;curved=0;rounded=0;dashed=1;dashPattern=2 3;endArrow=block;" edge="1" parent="1" source="seu4ykK82UJ5W9q59eQ0-144" target="seu4ykK82UJ5W9q59eQ0-143">
          <mxGeometry relative="1" as="geometry">
            <Array as="points">
              <mxPoint x="528" y="1025" />
            </Array>
          </mxGeometry>
        </mxCell>
        <mxCell id="seu4ykK82UJ5W9q59eQ0-156" value="200 OK + JWT" style="verticalAlign=bottom;edgeStyle=elbowEdgeStyle;elbow=vertical;curved=0;rounded=0;dashed=1;dashPattern=2 3;endArrow=block;" edge="1" parent="1" source="seu4ykK82UJ5W9q59eQ0-143" target="seu4ykK82UJ5W9q59eQ0-142">
          <mxGeometry relative="1" as="geometry">
            <Array as="points">
              <mxPoint x="247" y="1077" />
            </Array>
          </mxGeometry>
        </mxCell>
        <mxCell id="seu4ykK82UJ5W9q59eQ0-157" value="401 Unauthorized" style="verticalAlign=bottom;edgeStyle=elbowEdgeStyle;elbow=vertical;curved=0;rounded=0;dashed=1;dashPattern=2 3;endArrow=block;" edge="1" parent="1" source="seu4ykK82UJ5W9q59eQ0-144" target="seu4ykK82UJ5W9q59eQ0-143">
          <mxGeometry relative="1" as="geometry">
            <Array as="points">
              <mxPoint x="528" y="1175" />
            </Array>
          </mxGeometry>
        </mxCell>
        <mxCell id="seu4ykK82UJ5W9q59eQ0-158" value="401 Unauthorized" style="verticalAlign=bottom;edgeStyle=elbowEdgeStyle;elbow=vertical;curved=0;rounded=0;dashed=1;dashPattern=2 3;endArrow=block;" edge="1" parent="1" source="seu4ykK82UJ5W9q59eQ0-143" target="seu4ykK82UJ5W9q59eQ0-142">
          <mxGeometry relative="1" as="geometry">
            <Array as="points">
              <mxPoint x="247" y="1227" />
            </Array>
          </mxGeometry>
        </mxCell>
        <mxCell id="seu4ykK82UJ5W9q59eQ0-159" value="User" style="swimlane;fontStyle=1;align=center;verticalAlign=top;childLayout=stackLayout;horizontal=1;startSize=32;horizontalStack=0;resizeParent=1;resizeParentMax=0;resizeLast=0;collapsible=0;marginBottom=0;" vertex="1" parent="1">
          <mxGeometry x="346" y="1360" width="312" height="264" as="geometry" />
        </mxCell>
        <mxCell id="seu4ykK82UJ5W9q59eQ0-160" value="+String _id" style="text;strokeColor=none;fillColor=none;align=left;verticalAlign=top;spacingLeft=4;spacingRight=4;overflow=hidden;rotatable=0;points=[[0,0.5],[1,0.5]];portConstraint=eastwest;" vertex="1" parent="seu4ykK82UJ5W9q59eQ0-159">
          <mxGeometry y="32" width="312" height="32" as="geometry" />
        </mxCell>
        <mxCell id="seu4ykK82UJ5W9q59eQ0-161" value="+String email" style="text;strokeColor=none;fillColor=none;align=left;verticalAlign=top;spacingLeft=4;spacingRight=4;overflow=hidden;rotatable=0;points=[[0,0.5],[1,0.5]];portConstraint=eastwest;" vertex="1" parent="seu4ykK82UJ5W9q59eQ0-159">
          <mxGeometry y="64" width="312" height="32" as="geometry" />
        </mxCell>
        <mxCell id="seu4ykK82UJ5W9q59eQ0-162" value="+String passwordHash" style="text;strokeColor=none;fillColor=none;align=left;verticalAlign=top;spacingLeft=4;spacingRight=4;overflow=hidden;rotatable=0;points=[[0,0.5],[1,0.5]];portConstraint=eastwest;" vertex="1" parent="seu4ykK82UJ5W9q59eQ0-159">
          <mxGeometry y="96" width="312" height="32" as="geometry" />
        </mxCell>
        <mxCell id="seu4ykK82UJ5W9q59eQ0-163" value="+String role" style="text;strokeColor=none;fillColor=none;align=left;verticalAlign=top;spacingLeft=4;spacingRight=4;overflow=hidden;rotatable=0;points=[[0,0.5],[1,0.5]];portConstraint=eastwest;" vertex="1" parent="seu4ykK82UJ5W9q59eQ0-159">
          <mxGeometry y="128" width="312" height="32" as="geometry" />
        </mxCell>
        <mxCell id="seu4ykK82UJ5W9q59eQ0-164" value="+Date createdAt" style="text;strokeColor=none;fillColor=none;align=left;verticalAlign=top;spacingLeft=4;spacingRight=4;overflow=hidden;rotatable=0;points=[[0,0.5],[1,0.5]];portConstraint=eastwest;" vertex="1" parent="seu4ykK82UJ5W9q59eQ0-159">
          <mxGeometry y="160" width="312" height="32" as="geometry" />
        </mxCell>
        <mxCell id="seu4ykK82UJ5W9q59eQ0-165" value="+Date updatedAt" style="text;strokeColor=none;fillColor=none;align=left;verticalAlign=top;spacingLeft=4;spacingRight=4;overflow=hidden;rotatable=0;points=[[0,0.5],[1,0.5]];portConstraint=eastwest;" vertex="1" parent="seu4ykK82UJ5W9q59eQ0-159">
          <mxGeometry y="192" width="312" height="32" as="geometry" />
        </mxCell>
        <mxCell id="seu4ykK82UJ5W9q59eQ0-166" style="line;strokeWidth=1;fillColor=none;align=left;verticalAlign=middle;spacingTop=-1;spacingLeft=3;spacingRight=3;rotatable=0;labelPosition=right;points=[];portConstraint=eastwest;strokeColor=inherit;" vertex="1" parent="seu4ykK82UJ5W9q59eQ0-159">
          <mxGeometry y="224" width="312" height="8" as="geometry" />
        </mxCell>
        <mxCell id="seu4ykK82UJ5W9q59eQ0-167" value="+boolean validatePassword(password)" style="text;strokeColor=none;fillColor=none;align=left;verticalAlign=top;spacingLeft=4;spacingRight=4;overflow=hidden;rotatable=0;points=[[0,0.5],[1,0.5]];portConstraint=eastwest;" vertex="1" parent="seu4ykK82UJ5W9q59eQ0-159">
          <mxGeometry y="232" width="312" height="32" as="geometry" />
        </mxCell>
        <mxCell id="seu4ykK82UJ5W9q59eQ0-168" value="AuthController" style="swimlane;fontStyle=1;align=center;verticalAlign=top;childLayout=stackLayout;horizontal=1;startSize=36.888888888888886;horizontalStack=0;resizeParent=1;resizeParentMax=0;resizeLast=0;collapsible=0;marginBottom=0;" vertex="1" parent="1">
          <mxGeometry x="389" y="1697" width="226" height="155.88888888888889" as="geometry" />
        </mxCell>
        <mxCell id="seu4ykK82UJ5W9q59eQ0-169" style="line;strokeWidth=1;fillColor=none;align=left;verticalAlign=middle;spacingTop=-1;spacingLeft=3;spacingRight=3;rotatable=0;labelPosition=right;points=[];portConstraint=eastwest;strokeColor=inherit;" vertex="1" parent="seu4ykK82UJ5W9q59eQ0-168">
          <mxGeometry y="36.888888888888886" width="226" height="8" as="geometry" />
        </mxCell>
        <mxCell id="seu4ykK82UJ5W9q59eQ0-170" value="+register(req, res)" style="text;strokeColor=none;fillColor=none;align=left;verticalAlign=top;spacingLeft=4;spacingRight=4;overflow=hidden;rotatable=0;points=[[0,0.5],[1,0.5]];portConstraint=eastwest;" vertex="1" parent="seu4ykK82UJ5W9q59eQ0-168">
          <mxGeometry y="44.888888888888886" width="226" height="37" as="geometry" />
        </mxCell>
        <mxCell id="seu4ykK82UJ5W9q59eQ0-171" value="+login(req, res)" style="text;strokeColor=none;fillColor=none;align=left;verticalAlign=top;spacingLeft=4;spacingRight=4;overflow=hidden;rotatable=0;points=[[0,0.5],[1,0.5]];portConstraint=eastwest;" vertex="1" parent="seu4ykK82UJ5W9q59eQ0-168">
          <mxGeometry y="81.88888888888889" width="226" height="37" as="geometry" />
        </mxCell>
        <mxCell id="seu4ykK82UJ5W9q59eQ0-172" value="+getProfile(req, res)" style="text;strokeColor=none;fillColor=none;align=left;verticalAlign=top;spacingLeft=4;spacingRight=4;overflow=hidden;rotatable=0;points=[[0,0.5],[1,0.5]];portConstraint=eastwest;" vertex="1" parent="seu4ykK82UJ5W9q59eQ0-168">
          <mxGeometry y="118.88888888888889" width="226" height="37" as="geometry" />
        </mxCell>
        <mxCell id="seu4ykK82UJ5W9q59eQ0-173" value="JWTService" style="swimlane;fontStyle=1;align=center;verticalAlign=top;childLayout=stackLayout;horizontal=1;startSize=40.57142857142857;horizontalStack=0;resizeParent=1;resizeParentMax=0;resizeLast=0;collapsible=0;marginBottom=0;" vertex="1" parent="1">
          <mxGeometry x="20" y="1943" width="172" height="130.57142857142856" as="geometry" />
        </mxCell>
        <mxCell id="seu4ykK82UJ5W9q59eQ0-174" style="line;strokeWidth=1;fillColor=none;align=left;verticalAlign=middle;spacingTop=-1;spacingLeft=3;spacingRight=3;rotatable=0;labelPosition=right;points=[];portConstraint=eastwest;strokeColor=inherit;" vertex="1" parent="seu4ykK82UJ5W9q59eQ0-173">
          <mxGeometry y="40.57142857142857" width="172" height="8" as="geometry" />
        </mxCell>
        <mxCell id="seu4ykK82UJ5W9q59eQ0-175" value="+sign(payload)" style="text;strokeColor=none;fillColor=none;align=left;verticalAlign=top;spacingLeft=4;spacingRight=4;overflow=hidden;rotatable=0;points=[[0,0.5],[1,0.5]];portConstraint=eastwest;" vertex="1" parent="seu4ykK82UJ5W9q59eQ0-173">
          <mxGeometry y="48.57142857142857" width="172" height="41" as="geometry" />
        </mxCell>
        <mxCell id="seu4ykK82UJ5W9q59eQ0-176" value="+verify(token)" style="text;strokeColor=none;fillColor=none;align=left;verticalAlign=top;spacingLeft=4;spacingRight=4;overflow=hidden;rotatable=0;points=[[0,0.5],[1,0.5]];portConstraint=eastwest;" vertex="1" parent="seu4ykK82UJ5W9q59eQ0-173">
          <mxGeometry y="89.57142857142857" width="172" height="41" as="geometry" />
        </mxCell>
        <mxCell id="seu4ykK82UJ5W9q59eQ0-177" value="RoleMiddleware" style="swimlane;fontStyle=1;align=center;verticalAlign=top;childLayout=stackLayout;horizontal=1;startSize=47.2;horizontalStack=0;resizeParent=1;resizeParentMax=0;resizeLast=0;collapsible=0;marginBottom=0;" vertex="1" parent="1">
          <mxGeometry x="816" y="1955" width="215" height="102.2" as="geometry" />
        </mxCell>
        <mxCell id="seu4ykK82UJ5W9q59eQ0-178" style="line;strokeWidth=1;fillColor=none;align=left;verticalAlign=middle;spacingTop=-1;spacingLeft=3;spacingRight=3;rotatable=0;labelPosition=right;points=[];portConstraint=eastwest;strokeColor=inherit;" vertex="1" parent="seu4ykK82UJ5W9q59eQ0-177">
          <mxGeometry y="47.2" width="215" height="8" as="geometry" />
        </mxCell>
        <mxCell id="seu4ykK82UJ5W9q59eQ0-179" value="+requireRole(role)" style="text;strokeColor=none;fillColor=none;align=left;verticalAlign=top;spacingLeft=4;spacingRight=4;overflow=hidden;rotatable=0;points=[[0,0.5],[1,0.5]];portConstraint=eastwest;" vertex="1" parent="seu4ykK82UJ5W9q59eQ0-177">
          <mxGeometry y="55.2" width="215" height="47" as="geometry" />
        </mxCell>
        <mxCell id="seu4ykK82UJ5W9q59eQ0-180" value="ValidationMiddleware" style="swimlane;fontStyle=1;align=center;verticalAlign=top;childLayout=stackLayout;horizontal=1;startSize=40.57142857142857;horizontalStack=0;resizeParent=1;resizeParentMax=0;resizeLast=0;collapsible=0;marginBottom=0;" vertex="1" parent="1">
          <mxGeometry x="526" y="1943" width="240" height="130.57142857142856" as="geometry" />
        </mxCell>
        <mxCell id="seu4ykK82UJ5W9q59eQ0-181" style="line;strokeWidth=1;fillColor=none;align=left;verticalAlign=middle;spacingTop=-1;spacingLeft=3;spacingRight=3;rotatable=0;labelPosition=right;points=[];portConstraint=eastwest;strokeColor=inherit;" vertex="1" parent="seu4ykK82UJ5W9q59eQ0-180">
          <mxGeometry y="40.57142857142857" width="240" height="8" as="geometry" />
        </mxCell>
        <mxCell id="seu4ykK82UJ5W9q59eQ0-182" value="+validateRegister()" style="text;strokeColor=none;fillColor=none;align=left;verticalAlign=top;spacingLeft=4;spacingRight=4;overflow=hidden;rotatable=0;points=[[0,0.5],[1,0.5]];portConstraint=eastwest;" vertex="1" parent="seu4ykK82UJ5W9q59eQ0-180">
          <mxGeometry y="48.57142857142857" width="240" height="41" as="geometry" />
        </mxCell>
        <mxCell id="seu4ykK82UJ5W9q59eQ0-183" value="+validateLogin()" style="text;strokeColor=none;fillColor=none;align=left;verticalAlign=top;spacingLeft=4;spacingRight=4;overflow=hidden;rotatable=0;points=[[0,0.5],[1,0.5]];portConstraint=eastwest;" vertex="1" parent="seu4ykK82UJ5W9q59eQ0-180">
          <mxGeometry y="89.57142857142857" width="240" height="41" as="geometry" />
        </mxCell>
        <mxCell id="seu4ykK82UJ5W9q59eQ0-184" value="MongoDB" style="swimlane;fontStyle=1;align=center;verticalAlign=top;childLayout=stackLayout;horizontal=1;startSize=40.57142857142857;horizontalStack=0;resizeParent=1;resizeParentMax=0;resizeLast=0;collapsible=0;marginBottom=0;" vertex="1" parent="1">
          <mxGeometry x="242" y="1943" width="234" height="130.57142857142856" as="geometry" />
        </mxCell>
        <mxCell id="seu4ykK82UJ5W9q59eQ0-185" style="line;strokeWidth=1;fillColor=none;align=left;verticalAlign=middle;spacingTop=-1;spacingLeft=3;spacingRight=3;rotatable=0;labelPosition=right;points=[];portConstraint=eastwest;strokeColor=inherit;" vertex="1" parent="seu4ykK82UJ5W9q59eQ0-184">
          <mxGeometry y="40.57142857142857" width="234" height="8" as="geometry" />
        </mxCell>
        <mxCell id="seu4ykK82UJ5W9q59eQ0-186" value="+saveUser(user)" style="text;strokeColor=none;fillColor=none;align=left;verticalAlign=top;spacingLeft=4;spacingRight=4;overflow=hidden;rotatable=0;points=[[0,0.5],[1,0.5]];portConstraint=eastwest;" vertex="1" parent="seu4ykK82UJ5W9q59eQ0-184">
          <mxGeometry y="48.57142857142857" width="234" height="41" as="geometry" />
        </mxCell>
        <mxCell id="seu4ykK82UJ5W9q59eQ0-187" value="+findUserByEmail(email)" style="text;strokeColor=none;fillColor=none;align=left;verticalAlign=top;spacingLeft=4;spacingRight=4;overflow=hidden;rotatable=0;points=[[0,0.5],[1,0.5]];portConstraint=eastwest;" vertex="1" parent="seu4ykK82UJ5W9q59eQ0-184">
          <mxGeometry y="89.57142857142857" width="234" height="41" as="geometry" />
        </mxCell>
        <mxCell id="seu4ykK82UJ5W9q59eQ0-188" value="&quot;utilise&quot;" style="curved=1;dashed=1;startArrow=open;startSize=12;endArrow=none;exitX=0.5;exitY=1;entryX=0.5;entryY=0;rounded=0;" edge="1" parent="1" source="seu4ykK82UJ5W9q59eQ0-159" target="seu4ykK82UJ5W9q59eQ0-168">
          <mxGeometry relative="1" as="geometry">
            <Array as="points" />
          </mxGeometry>
        </mxCell>
        <mxCell id="seu4ykK82UJ5W9q59eQ0-189" value="&quot;utilise&quot;" style="curved=1;dashed=1;startArrow=none;endArrow=open;endSize=12;exitX=0;exitY=0.7;entryX=0.5;entryY=0;rounded=0;" edge="1" parent="1" source="seu4ykK82UJ5W9q59eQ0-168" target="seu4ykK82UJ5W9q59eQ0-173">
          <mxGeometry relative="1" as="geometry">
            <Array as="points">
              <mxPoint x="106" y="1907" />
            </Array>
          </mxGeometry>
        </mxCell>
        <mxCell id="seu4ykK82UJ5W9q59eQ0-190" value="&quot;utilise&quot;" style="curved=1;dashed=1;startArrow=none;endArrow=open;endSize=12;exitX=0.05;exitY=1;entryX=0.5;entryY=0;rounded=0;" edge="1" parent="1" source="seu4ykK82UJ5W9q59eQ0-168" target="seu4ykK82UJ5W9q59eQ0-184">
          <mxGeometry relative="1" as="geometry">
            <Array as="points">
              <mxPoint x="359" y="1907" />
            </Array>
          </mxGeometry>
        </mxCell>
        <mxCell id="seu4ykK82UJ5W9q59eQ0-191" value="&quot;utilise&quot;" style="curved=1;dashed=1;startArrow=none;endArrow=open;endSize=12;exitX=0.95;exitY=1;entryX=0.5;entryY=0;rounded=0;" edge="1" parent="1" source="seu4ykK82UJ5W9q59eQ0-168" target="seu4ykK82UJ5W9q59eQ0-180">
          <mxGeometry relative="1" as="geometry">
            <Array as="points">
              <mxPoint x="646" y="1907" />
            </Array>
          </mxGeometry>
        </mxCell>
        <mxCell id="seu4ykK82UJ5W9q59eQ0-192" value="&quot;utilise&quot;" style="curved=1;dashed=1;startArrow=none;endArrow=open;endSize=12;exitX=1;exitY=0.69;entryX=0.5;entryY=0;rounded=0;" edge="1" parent="1" source="seu4ykK82UJ5W9q59eQ0-168" target="seu4ykK82UJ5W9q59eQ0-177">
          <mxGeometry relative="1" as="geometry">
            <Array as="points">
              <mxPoint x="923" y="1907" />
            </Array>
          </mxGeometry>
        </mxCell>
      </root>
    </mxGraphModel>
  </diagram>
</mxfile>
